<svg xmlns="http://www.w3.org/2000/svg" xmlns:xlink="http://www.w3.org/1999/xlink" width="45.38" height="45.38" viewBox="0 0 45.38 45.38">
  <defs>
    <clipPath id="clip-path">
      <rect id="Rectangle_51" data-name="Rectangle 51" width="28" height="19" fill="none"/>
    </clipPath>
  </defs>
  <g id="Icon" transform="translate(-317.94 -13416.76)">
    <g id="Circle" transform="translate(317.94 13416.76)" fill="none" stroke="#00ff5b" stroke-width="4">
      <circle cx="22.69" cy="22.69" r="22.69" stroke="none"/>
      <circle cx="22.69" cy="22.69" r="20.69" fill="none"/>
    </g>
    <g id="Vector_Smart_Object" data-name="Vector Smart Object">
      <g id="Vector_Smart_Object-2" data-name="Vector Smart Object" transform="translate(326 13428)">
        <g id="Group_87" data-name="Group 87">
          <g id="Group_86" data-name="Group 86" clip-path="url(#clip-path)">
            <path id="Path_205" data-name="Path 205" d="M13.989,9.5a4.782,4.782,0,0,0,4.8-4.75,4.8,4.8,0,0,0-9.607,0,4.782,4.782,0,0,0,4.8,4.75m0-7.917a3.167,3.167,0,1,1-3.2,3.167,3.188,3.188,0,0,1,3.2-3.167"/>
            <path id="Path_206" data-name="Path 206" d="M22.4,11.083a3.563,3.563,0,1,0-3.6-3.562,3.587,3.587,0,0,0,3.6,3.562m0-5.541a1.979,1.979,0,1,1-2,1.979,1.993,1.993,0,0,1,2-1.979"/>
            <path id="Path_207" data-name="Path 207" d="M22.4,12.667a5.651,5.651,0,0,0-2.8.742.77.77,0,0,0-.163.143,7.232,7.232,0,0,0-10.873-.011.755.755,0,0,0-.151-.132,5.652,5.652,0,0,0-2.8-.742A5.579,5.579,0,0,0,0,18.208.8.8,0,0,0,.8,19a.8.8,0,0,0,.8-.792,3.985,3.985,0,0,1,4-3.958,4.041,4.041,0,0,1,2,.529.485.485,0,0,0,.06.02,7.009,7.009,0,0,0-.882,3.41.8.8,0,0,0,1.6,0,5.6,5.6,0,0,1,11.209,0,.8.8,0,0,0,1.6,0,7.012,7.012,0,0,0-.877-3.4.671.671,0,0,0,.077-.026,4.04,4.04,0,0,1,2-.529,3.985,3.985,0,0,1,4,3.958.8.8,0,0,0,1.6,0,5.58,5.58,0,0,0-5.6-5.541Z"/>
            <path id="Path_208" data-name="Path 208" d="M5.6,3.958a3.563,3.563,0,1,0,3.6,3.562A3.587,3.587,0,0,0,5.6,3.958ZM5.6,9.5a1.979,1.979,0,1,1,2-1.979A1.993,1.993,0,0,1,5.6,9.5Z"/>
          </g>
        </g>
      </g>
      <path id="Color_Overlay" data-name="Color Overlay" d="M352.4,13446.207a3.984,3.984,0,0,0-4-3.955,4.042,4.042,0,0,0-2,.526c-.024.013-.051.013-.078.026a7,7,0,0,1,.877,3.4.8.8,0,0,1-1.6,0,5.606,5.606,0,0,0-11.211,0,.8.8,0,0,1-1.6,0,7,7,0,0,1,.881-3.409.244.244,0,0,1-.061-.02,4.041,4.041,0,0,0-2-.526,3.984,3.984,0,0,0-4,3.955.8.8,0,0,1-1.6,0,5.58,5.58,0,0,1,5.6-5.542,5.654,5.654,0,0,1,2.8.743.911.911,0,0,1,.152.131,7.228,7.228,0,0,1,10.87.014.686.686,0,0,1,.165-.145,5.615,5.615,0,0,1,8.407,4.8.8.8,0,0,1-1.6,0Zm-7.607-10.688a3.6,3.6,0,1,1,3.6,3.564A3.588,3.588,0,0,1,344.792,13435.519Zm1.6,0a2,2,0,1,0,2-1.978A1.993,1.993,0,0,0,346.395,13435.519Zm-18.392,0a3.6,3.6,0,1,1,3.6,3.564A3.585,3.585,0,0,1,328,13435.519Zm1.6,0a2,2,0,1,0,2-1.978A1.993,1.993,0,0,0,329.6,13435.519Zm5.582-2.767a4.8,4.8,0,1,1,4.806,4.748A4.784,4.784,0,0,1,335.184,13432.752Zm1.6,0a3.2,3.2,0,1,0,3.2-3.169A3.189,3.189,0,0,0,336.787,13432.752Z" fill="#fff"/>
    </g>
  </g>
</svg>
