<svg xmlns="http://www.w3.org/2000/svg" xmlns:xlink="http://www.w3.org/1999/xlink" width="45.38" height="45.38" viewBox="0 0 45.38 45.38">
  <defs>
    <clipPath id="clip-path">
      <rect id="Rectangle_53" data-name="Rectangle 53" width="18" height="14" fill="none"/>
    </clipPath>
  </defs>
  <g id="Group_1" data-name="Group 1" transform="translate(-116.94 -13633.42)">
    <g id="Circle" transform="translate(116.94 13633.42)" fill="none" stroke="#00ff5b" stroke-width="4">
      <circle cx="22.69" cy="22.69" r="22.69" stroke="none"/>
      <circle cx="22.69" cy="22.69" r="20.69" fill="none"/>
    </g>
    <g id="Vector_Smart_Object" data-name="Vector Smart Object">
      <g id="Vector_Smart_Object-2" data-name="Vector Smart Object" transform="translate(132 13649)">
        <g id="Group_91" data-name="Group 91">
          <g id="Group_90" data-name="Group 90" clip-path="url(#clip-path)">
            <path id="Path_213" data-name="Path 213" d="M6.882,14a1.938,1.938,0,0,1-1.4-.616L.509,7.935A1.962,1.962,0,0,1,.6,5.2,1.893,1.893,0,0,1,3.3,5.3L6.863,9.206,14.7.62a1.876,1.876,0,0,1,2.693-.1,1.945,1.945,0,0,1,.095,2.734L8.266,13.384A1.856,1.856,0,0,1,6.882,14Z"/>
          </g>
        </g>
      </g>
      <path id="Color_Overlay" data-name="Color Overlay" d="M138.88,13663a1.931,1.931,0,0,1-1.4-.617l-4.969-5.448a1.959,1.959,0,0,1,.1-2.732,1.893,1.893,0,0,1,2.692.1l3.566,3.909,7.832-8.586a1.878,1.878,0,0,1,1.375-.621h.034a1.9,1.9,0,0,1,1.286.521,1.939,1.939,0,0,1,.61,1.4v.027a1.97,1.97,0,0,1-.514,1.311l-9.22,10.125a1.85,1.85,0,0,1-1.382.617Z" fill="#fff"/>
    </g>
  </g>
</svg>
