<svg xmlns="http://www.w3.org/2000/svg" xmlns:xlink="http://www.w3.org/1999/xlink" width="45.38" height="45.38" viewBox="0 0 45.38 45.38">
  <defs>
    <clipPath id="clip-path">
      <rect id="Rectangle_49" data-name="Rectangle 49" width="22" height="22" fill="none"/>
    </clipPath>
  </defs>
  <g id="Icon" transform="translate(-116.55 -13416.76)">
    <g id="Circle" transform="translate(116.55 13416.76)" fill="none" stroke="#00ff5b" stroke-width="4">
      <circle cx="22.69" cy="22.69" r="22.69" stroke="none"/>
      <circle cx="22.69" cy="22.69" r="20.69" fill="none"/>
    </g>
    <g id="Vector_Smart_Object" data-name="Vector Smart Object">
      <g id="Vector_Smart_Object-2" data-name="Vector Smart Object" transform="translate(129 13427)">
        <g id="Group_83" data-name="Group 83">
          <g id="Group_82" data-name="Group 82" clip-path="url(#clip-path)">
            <path id="Path_201" data-name="Path 201" d="M17.058,11.872a4.966,4.966,0,0,0-4.743,3.655c-.14-.035-.273-.067-.384-.093a2.778,2.778,0,0,1,.044-.634,11.161,11.161,0,0,0,1.99-2.471,2.915,2.915,0,0,0,1.972-1.886,3.593,3.593,0,0,0-.1-3.079,8.5,8.5,0,0,0-1.392-4.915A5.712,5.712,0,0,0,9.328.009,5.7,5.7,0,0,0,4.211,2.448,8.5,8.5,0,0,0,2.82,7.363a3.585,3.585,0,0,0-.1,3.079,2.919,2.919,0,0,0,1.972,1.886A11.085,11.085,0,0,0,6.682,14.8a2.719,2.719,0,0,1,.043.634C5.041,15.813,0,17.272,0,21.138A.852.852,0,0,0,.841,22H17.058a5.066,5.066,0,0,0,0-10.128ZM7.529,17.027a.844.844,0,0,0,.607-.446,3.671,3.671,0,0,0,.141-2.387.868.868,0,0,0-.312-.543A9.567,9.567,0,0,1,5.94,11.108a.906.906,0,0,0-.779-.45c-.054,0-.541-.025-.891-.882a1.737,1.737,0,0,1,.068-1.653.883.883,0,0,0,.176-.685,6.537,6.537,0,0,1,1.11-4.056A4.073,4.073,0,0,1,9.248,1.731a.817.817,0,0,0,.159,0,4.061,4.061,0,0,1,3.627,1.651,6.432,6.432,0,0,1,1.111,4.056.92.92,0,0,0,.165.672,1.72,1.72,0,0,1,.077,1.664c-.351.857-.837.882-.858.884a.847.847,0,0,0-.813.447,9.469,9.469,0,0,1-2.025,2.541.867.867,0,0,0-.308.531,3.678,3.678,0,0,0,.138,2.4.846.846,0,0,0,.607.446c.005,0,.412.072,1,.233a5.106,5.106,0,0,0,1.222,3.017H1.849c.947-2.38,5.628-3.24,5.681-3.25Zm9.529,3.25a3.341,3.341,0,1,1,3.259-3.34,3.3,3.3,0,0,1-3.259,3.34"/>
            <path id="Path_202" data-name="Path 202" d="M18.941,16.506H17.479v-1.5a.421.421,0,1,0-.841,0v1.5H15.175a.431.431,0,0,0,0,.862h1.462v1.5a.421.421,0,1,0,.841,0v-1.5h1.462a.431.431,0,0,0,0-.862Z"/>
          </g>
        </g>
      </g>
      <path id="Color_Overlay" data-name="Color Overlay" d="M129.843,13449a.852.852,0,0,1-.844-.86c0-3.868,5.043-5.326,6.727-5.705a2.861,2.861,0,0,0-.044-.634,11.123,11.123,0,0,1-1.991-2.471,2.93,2.93,0,0,1-1.971-1.887,3.573,3.573,0,0,1,.1-3.078,8.5,8.5,0,0,1,1.391-4.918,5.59,5.59,0,0,1,4.779-2.447h.03c.135,0,.24,0,.307.01a5.712,5.712,0,0,1,5.117,2.438,8.514,8.514,0,0,1,1.394,4.918,3.587,3.587,0,0,1,.1,3.078,2.93,2.93,0,0,1-1.971,1.887,11.291,11.291,0,0,1-1.991,2.471,2.859,2.859,0,0,0-.044.634c.111.024.246.058.385.092a4.961,4.961,0,1,1,4.742,6.474Zm12.958-5.062a3.26,3.26,0,1,0,3.257-3.342A3.3,3.3,0,0,0,142.8,13443.938Zm-8.175-13.556a6.534,6.534,0,0,0-1.11,4.058.9.9,0,0,1-.176.685,1.724,1.724,0,0,0-.071,1.65c.351.861.84.885.894.885a.9.9,0,0,1,.776.449,9.6,9.6,0,0,0,2.025,2.541.855.855,0,0,1,.311.544,3.683,3.683,0,0,1-.138,2.39.843.843,0,0,1-.608.445c-.054.007-4.732.867-5.681,3.247h11.506a5.1,5.1,0,0,1-1.222-3.015c-.594-.162-1-.232-1.006-.236a.855.855,0,0,1-.608-.445,3.688,3.688,0,0,1-.135-2.4.856.856,0,0,1,.307-.533,9.561,9.561,0,0,0,2.025-2.538.843.843,0,0,1,.813-.449c.02,0,.506-.027.857-.885a1.715,1.715,0,0,0-.078-1.664.914.914,0,0,1-.165-.671,6.426,6.426,0,0,0-1.11-4.058,4.065,4.065,0,0,0-3.628-1.65,1.075,1.075,0,0,1-.159,0c-.017,0-.111-.007-.257-.007A3.934,3.934,0,0,0,134.625,13430.382Zm11.013,15.485v-1.5h-1.465a.43.43,0,0,1,0-.86h1.465v-1.5a.42.42,0,1,1,.84,0v1.5h1.461a.43.43,0,0,1,0,.86h-1.461v1.5a.42.42,0,1,1-.84,0Z" fill="#fff"/>
    </g>
  </g>
</svg>
