<svg xmlns="http://www.w3.org/2000/svg" width="500" height="500.011" viewBox="0 0 500 500.011">
  <g id="noun-calendar-2562627" transform="translate(-100 -29.989)">
    <path class="fill-light" id="Path_1225" data-name="Path 1225" d="M110,530H590a10,10,0,0,0,10-10V116.95a10,10,0,0,0-10-10H504.105V40a10,10,0,0,0-20,0V106.95H215.9V39.989a10,10,0,0,0-20,0v66.957l-85.895,0a10,10,0,0,0-10,10V520a10,10,0,0,0,10,10Zm10-20V219.07H580V510Zm75.895-383.05v45.793a10,10,0,0,0,20,0V126.95H484.1v45.793a10,10,0,0,0,20,0V126.95H580v72.121l-460,0V126.946Z"/>
    <path class="fill-light" id="Path_1226" data-name="Path 1226" d="M440.88,301.18,283.58,404.52l-20.707-50.465a10,10,0,1,0-18.5,7.6l25.316,61.684a10,10,0,0,0,14.742,4.563l167.44-110a10,10,0,0,0-10.985-16.719Z"/>
  </g>
</svg>
