<svg xmlns="http://www.w3.org/2000/svg" width="558.906" height="534.813" viewBox="0 0 558.906 534.813">
  <g id="noun-star-1009051" transform="translate(-69.996 -13.139)">
    <path class="fill-light" id="Path_1227" data-name="Path 1227" d="M387,40.484l71.4,116.17,123.32,29.75c17.324,4.188,44.152,10.867,46.949,31,3.906,28.121-41.4,68.9-78.492,112.8-31.9,37.746-26.355,20.2-22.457,70.617,13.312,172.42,19.184,166.75-138.57,101.29-47.273-19.613-32.258-20.145-79.453-.094-78.164,33.223-114.68,53.2-131.45,43.465-17.3-10.047-10.934-52.539-3.879-141.22,4.313-54.184,9.605-38.238-20.633-74-115.59-136.73-122.64-122.59,49.527-163.81,50.3-12.039,35.129-.609,62.219-44.484,14.309-23.18,29.672-51.508,43.828-74.246,27.168-43.641,54.02-45.887,77.7-7.234Zm26.008,94.285c-.605-.977-34.938-59.738-51.758-83.07-8.465-11.758-10.172-13.855-21.094.219C315.972,83.086,272.4,177.708,255.9,181.7c-180.36,43.6-170,28.211-137.2,67.465,56.855,68.047,79.789,86.609,85.3,103.18,4.133,12.434-.105,23.758-2.52,54.031C191.2,535.564,184.148,526.324,216.6,512.6c155.27-65.645,118.71-62.254,182.96-35.594,134.88,55.973,112.41,73.023,101.04-74.172-5-64.742-12.742-40.988,28.836-90.188,95.168-112.59,107.15-85.1-38.1-120.14-63.707-15.367-43.039-.328-78.332-57.734Z" fill-rule="evenodd"/>
    <path class="fill-light" id="Path_1228" data-name="Path 1228" d="M366.59,131.16Q391.6,171.971,416.7,212.73q45.322,10.934,90.645,21.871c24.844,5.984,27.629,14.387,9.605,35.02-20.008,22.91-39.465,46.309-59.2,69.465q3.486,44.947,6.977,89.895c2.367,30.1-6.168,32.777-27.141,24.25-29.172-11.859-58.211-24.035-87.316-36.059-29.074,12.008-58.254,23.773-87.223,36.02-20.336,8.594-29.613,8.324-28.039-13.84,2.387-33.441,5.188-66.848,7.777-100.27-18.73-21.984-37.2-44.184-56.195-65.945-22.75-26.059-21.852-31.535,4.3-37.988,30.945-7.637,61.961-14.949,92.941-22.426,16.469-26.809,33.129-53.5,49.4-80.422,11.539-19.074,22.738-18.469,33.348-1.145Z" fill-rule="evenodd"/>
  </g>
</svg>
