<svg xmlns="http://www.w3.org/2000/svg" xmlns:xlink="http://www.w3.org/1999/xlink" width="26" height="28" viewBox="0 0 26 28">
  <defs>
    <clipPath id="clip-path">
      <rect id="Rectangle_67" data-name="Rectangle 67" width="26" height="28" fill="none"/>
    </clipPath>
  </defs>
  <g id="Group_118" data-name="Group 118" clip-path="url(#clip-path)">
    <path id="Path_293" data-name="Path 293" d="M13.959,28h-1.9a2.868,2.868,0,0,1-1.9-.734A3.283,3.283,0,0,1,9.121,25.4c-.76-4.071-3.084-6.085-6.842-8.169l-2-1.12a.533.533,0,0,1-.265-.361.572.572,0,0,1,.07-.431l4-6.462A10.9,10.9,0,0,1,7.946,5.091a9.967,9.967,0,0,1,5.063-1.322A9.887,9.887,0,0,1,18.721,5.5,11.046,11.046,0,0,1,21.9,8.825l4,6.462a.574.574,0,0,1,.07.431.533.533,0,0,1-.255.344l-2,1.12a16.683,16.683,0,0,0-4.5,3.306,9.541,9.541,0,0,0-2.349,4.884,3.289,3.289,0,0,1-1.021,1.875A2.874,2.874,0,0,1,13.958,28ZM1.239,15.416l1.5.84c3.928,2.2,6.527,4.459,7.362,8.933a2.19,2.19,0,0,0,.695,1.249,1.912,1.912,0,0,0,1.264.485h1.9a1.942,1.942,0,0,0,1.27-.485,2.19,2.19,0,0,0,.69-1.244,10.84,10.84,0,0,1,2.589-5.428,18.638,18.638,0,0,1,4.753-3.511l1.5-.84-3.7-5.982h0a10.013,10.013,0,0,0-2.883-3,9,9,0,0,0-5.168-1.583,9.044,9.044,0,0,0-4.576,1.19,9.884,9.884,0,0,0-3.5,3.392Z"/>
    <path id="Path_294" data-name="Path 294" d="M13.009,26.923a.471.471,0,0,1-.235-.065l-1.114-.641a1.288,1.288,0,0,1-.479-.5,1.414,1.414,0,0,1-.171-.693,1.371,1.371,0,0,1,.341-.933,1.181,1.181,0,0,1,.853-.4h1.609a1.181,1.181,0,0,1,.853.4,1.371,1.371,0,0,1,.341.933,1.422,1.422,0,0,1-.172.692,1.293,1.293,0,0,1-.478.5l-1.114.641h0a.471.471,0,0,1-.235.065Zm-.8-2.154a.239.239,0,0,0-.195.258.269.269,0,0,0,.12.242l.879.506.879-.506a.269.269,0,0,0,.12-.242.239.239,0,0,0-.195-.258Z"/>
    <path id="Path_295" data-name="Path 295" d="M4.264,10.1a.475.475,0,0,1-.275-.086A4.793,4.793,0,0,1,2.015,6.079V.538a.54.54,0,0,1,.31-.5.473.473,0,0,1,.545.113L7.912,5.588a.564.564,0,0,1,.14.442.545.545,0,0,1-.23.4,9.969,9.969,0,0,0-2.884,3.01l-.26.415a.492.492,0,0,1-.415.242ZM3.014,1.835V6.078A3.729,3.729,0,0,0,4.144,8.771a11.151,11.151,0,0,1,2.629-2.9Z"/>
    <path id="Path_296" data-name="Path 296" d="M21.755,10.1a.492.492,0,0,1-.415-.242l-.26-.42a10.013,10.013,0,0,0-2.884-3,.545.545,0,0,1-.23-.4.565.565,0,0,1,.14-.442L23.149.155a.473.473,0,0,1,.545-.113.54.54,0,0,1,.31.5V6.079a4.788,4.788,0,0,1-2,3.931A.476.476,0,0,1,21.755,10.1Zm-2.5-4.211a11.147,11.147,0,0,1,2.629,2.9,3.728,3.728,0,0,0,1.13-2.692V1.835Z"/>
    <path id="Path_297" data-name="Path 297" d="M11.51,25.566a.52.52,0,0,1-.5-.538V15.615A3.468,3.468,0,0,0,10.1,13.24a3.047,3.047,0,0,0-1.781-.94,2.939,2.939,0,0,0-1.948.4L.76,16.084a.483.483,0,0,1-.685-.2.563.563,0,0,1,.185-.738l5.607-3.4h0a3.858,3.858,0,0,1,4.1.028,4.508,4.508,0,0,1,2.038,3.838v9.413a.56.56,0,0,1-.146.381A.482.482,0,0,1,11.51,25.566Z"/>
    <path id="Path_298" data-name="Path 298" d="M11.51,25.566a.52.52,0,0,1-.5-.538V15.615A3.468,3.468,0,0,0,10.1,13.24a3.047,3.047,0,0,0-1.781-.94,2.939,2.939,0,0,0-1.948.4L.76,16.084a.483.483,0,0,1-.685-.2.563.563,0,0,1,.185-.738l5.607-3.4h0a3.858,3.858,0,0,1,4.1.028,4.508,4.508,0,0,1,2.038,3.838v9.413a.56.56,0,0,1-.146.381A.482.482,0,0,1,11.51,25.566Z"/>
    <path id="Path_299" data-name="Path 299" d="M14.509,25.566a.52.52,0,0,1-.5-.538V15.615a4.507,4.507,0,0,1,2.036-3.83,3.859,3.859,0,0,1,4.1-.036l5.607,3.4a.564.564,0,0,1,.185.738.482.482,0,0,1-.684.2l-5.6-3.4a2.939,2.939,0,0,0-1.948-.4,3.049,3.049,0,0,0-1.781.94,3.469,3.469,0,0,0-.915,2.391v9.413a.561.561,0,0,1-.146.381A.482.482,0,0,1,14.509,25.566Z"/>
    <path id="Path_300" data-name="Path 300" d="M9.511,15.884a.752.752,0,1,1-.75-.808.78.78,0,0,1,.75.808"/>
    <path id="Path_301" data-name="Path 301" d="M18.007,15.884a.752.752,0,1,1-.75-.808.78.78,0,0,1,.75.808"/>
  </g>
</svg>
