<svg xmlns="http://www.w3.org/2000/svg" width="95" height="84.7" viewBox="0 0 95 84.7">
  <g id="Group_884" data-name="Group 884" transform="translate(-2.5 -7.7)">
    <path class="fill-light" id="Path_1154" data-name="Path 1154" d="M57.2,64.7a11.9,11.9,0,1,0-14.2,0A13.757,13.757,0,0,0,32.5,76.4l-1.1,9.3A4.638,4.638,0,0,0,35,90.8a74.323,74.323,0,0,0,15.1,1.6,68.493,68.493,0,0,0,15.1-1.6,4.7,4.7,0,0,0,3.6-5.1l-1.1-9.3A13.885,13.885,0,0,0,57.2,64.7ZM50,47.9a7.3,7.3,0,1,1-7.3,7.3A7.341,7.341,0,0,1,50,47.9ZM35.9,86.2,37,76.9a9.072,9.072,0,0,1,9-8h8a9,9,0,0,1,9,8l1.1,9.3A67.02,67.02,0,0,1,35.9,86.2Z"/>
    <path class="fill-light" id="Path_1155" data-name="Path 1155" d="M89.4,47.1a7.959,7.959,0,0,0-7.8,6.1H70.1a20.391,20.391,0,0,0-4.5-10.9l8.1-8.1a8.186,8.186,0,0,0,4.1,1.2,8.1,8.1,0,1,0-8.1-8.1,7.3,7.3,0,0,0,1.2,4.1l-8.1,8.1A19.762,19.762,0,0,0,52,35V23.6a8.1,8.1,0,1,0-4,0V35.1a19.762,19.762,0,0,0-10.8,4.5l-8.1-8.1a8.186,8.186,0,0,0,1.2-4.1,8.1,8.1,0,1,0-8.1,8.1,7.3,7.3,0,0,0,4.1-1.2l8.1,8.1a19.762,19.762,0,0,0-4.5,10.8H18.4a8.079,8.079,0,1,0-7.8,10.1,7.959,7.959,0,0,0,7.8-6.1H29.8a16.4,16.4,0,0,0,.9,4.4,1.955,1.955,0,0,0,1.9,1.3,1.268,1.268,0,0,0,.6-.1,1.969,1.969,0,0,0,1.2-2.5,16.869,16.869,0,0,1-.8-5,16.4,16.4,0,0,1,32.8,0,16.869,16.869,0,0,1-.8,5,1.969,1.969,0,0,0,1.2,2.5,2.059,2.059,0,0,0,2.5-1.2,20.539,20.539,0,0,0,.9-4.3H81.6a8.09,8.09,0,1,0,7.8-10.2ZM10.6,59.3a4.2,4.2,0,1,1,4.2-4.2A4.225,4.225,0,0,1,10.6,59.3ZM77.9,23.2a4.2,4.2,0,1,1-4.2,4.2A4.225,4.225,0,0,1,77.9,23.2Zm-32-7.4A4.2,4.2,0,1,1,50.1,20,4.225,4.225,0,0,1,45.9,15.8ZM22.2,31.4a4.2,4.2,0,1,1,4.2-4.2A4.225,4.225,0,0,1,22.2,31.4Zm67.2,28a4.2,4.2,0,1,1,4.2-4.2A4.225,4.225,0,0,1,89.4,59.4Z"/>
  </g>
</svg>
