<svg xmlns="http://www.w3.org/2000/svg" width="18" height="14" viewBox="0 0 18 14">
  <g id="Icon" transform="translate(-1153 -406.998)">
    <path id="Twitter_" data-name="Twitter " d="M1171,408.614a6.89,6.89,0,0,1-2.138.538,3.066,3.066,0,0,0,1.575-1.938,7.583,7.583,0,0,1-2.362.862,4.017,4.017,0,0,0-2.7-1.077,3.643,3.643,0,0,0-3.6,3.553,1.536,1.536,0,0,0,.113.755,10.518,10.518,0,0,1-7.65-3.662,3.187,3.187,0,0,0-.45,1.831,3.5,3.5,0,0,0,1.687,2.908,4.891,4.891,0,0,1-1.687-.43h0a3.516,3.516,0,0,0,2.924,3.445,3.212,3.212,0,0,1-1.012.109,1.472,1.472,0,0,1-.675-.109,3.629,3.629,0,0,0,3.488,2.477,7.357,7.357,0,0,1-4.613,1.507h-.9a11.325,11.325,0,0,0,5.625,1.616,10.182,10.182,0,0,0,10.462-10.015v-.432A6.376,6.376,0,0,0,1171,408.614Z" fill="#fff"/>
  </g>
</svg>
