<svg xmlns="http://www.w3.org/2000/svg" width="20" height="15.999" viewBox="0 0 20 15.999">
  <g id="Icon" transform="translate(-1020 -403.999)">
    <g id="Youtube_" data-name="Youtube ">
      <g id="Base" fill="none">
        <path d="M1024.444,404h11.111A4.509,4.509,0,0,1,1040,408.57v6.857a4.509,4.509,0,0,1-4.444,4.571h-11.111a4.509,4.509,0,0,1-4.445-4.571V408.57A4.509,4.509,0,0,1,1024.444,404Z" stroke="none"/>
        <path d="M 1024.4443359375 405.9988098144531 C 1023.096435546875 405.9988098144531 1021.999755859375 407.1521911621094 1021.999755859375 408.5698852539062 L 1021.999755859375 415.4267578125 C 1021.999755859375 416.8446655273438 1023.096435546875 417.9981994628906 1024.4443359375 417.9981994628906 L 1035.555541992188 417.9981994628906 C 1036.9033203125 417.9981994628906 1037.999877929688 416.8446655273438 1037.999877929688 415.4267578125 L 1037.999877929688 408.5698852539062 C 1037.999877929688 407.1521911621094 1036.9033203125 405.9988098144531 1035.555541992188 405.9988098144531 L 1024.4443359375 405.9988098144531 M 1024.4443359375 403.9988098144531 L 1035.555541992188 403.9988098144531 C 1038.010009765625 403.9988098144531 1039.999877929688 406.0452880859375 1039.999877929688 408.5698852539062 L 1039.999877929688 415.4267578125 C 1039.999877929688 417.9519348144531 1038.010009765625 419.9981994628906 1035.555541992188 419.9981994628906 L 1024.4443359375 419.9981994628906 C 1021.98974609375 419.9981994628906 1019.999755859375 417.9519348144531 1019.999755859375 415.4267578125 L 1019.999755859375 408.5698852539062 C 1019.999755859375 406.0452880859375 1021.98974609375 403.9988098144531 1024.4443359375 403.9988098144531 Z" stroke="none" fill="#fff"/>
      </g>
      <path id="Play" d="M1033,412l-5,1.991v-3.982Z" fill="#fff"/>
    </g>
  </g>
</svg>
